<svg xmlns="http://www.w3.org/2000/svg" viewBox="0 0 480 120" width="480" height="120">
  <!--
    SyncBridge — Full Color Horizontal Logo (for light backgrounds)
    SG icon (left) + "SyncBridge" wordmark in dark gray (right)
    "SyncBridge" text: #1E293B (dark slate)
  -->
  <rect width="480" height="120" fill="none"/>

  <!-- ── SG Icon: scaled 0.28125x from 320x320 → ~90px ── -->
  <!-- scale(0.28125) with translate to vertically center in 120px -->
  <g transform="translate(8, 15) scale(0.28125)">
    <!-- S: purple -->
    <path fill="#7C6CF0" d="
      M 152 38
      C 180 38 204 46 220 62
      C 232 74 238 90 238 108
      L 196 108
      C 196 96 192 86 184 78
      C 174 68 162 62 148 62
      C 132 62 118 68 108 80
      C 100 90 98 102 104 114
      C 110 126 122 134 140 140
      L 158 145
      C 180 151 198 161 210 175
      C 220 187 224 202 224 218
      C 224 240 216 258 200 272
      C 184 286 162 294 136 294
      C 108 294 84 286 66 270
      C 50 256 42 238 42 218
      L 84 218
      C 84 230 88 240 96 248
      C 106 258 120 264 136 264
      C 154 264 168 258 176 246
      C 182 238 182 228 176 218
      C 170 208 158 202 140 196
      L 122 191
      C 100 185 82 175 70 161
      C 58 147 52 132 52 116
      C 52 94 60 76 76 62
      C 94 46 120 38 152 38
      Z
    "/>
    <!-- G: blue -->
    <path fill="#4AB8F0" d="
      M 224 38
      C 252 38 276 48 294 66
      C 308 80 316 98 316 118
      L 274 118
      C 274 106 270 96 262 88
      C 252 78 238 72 222 72
      C 204 72 190 80 180 96
      C 170 110 166 128 166 150
      C 166 172 170 190 180 204
      C 190 218 204 226 220 226
      C 232 226 242 222 250 216
      C 256 210 260 202 260 194
      L 222 194
      L 222 164
      L 296 164
      L 296 194
      C 296 216 288 234 272 248
      C 256 262 236 270 214 270
      C 188 270 166 260 148 242
      C 130 224 120 200 120 170
      C 120 140 130 114 148 96
      C 166 76 192 62 224 62
      Z
      M 260 194
      L 296 194
      L 296 282
      L 260 282
      Z
    "/>
  </g>

  <!-- ── Wordmark: "SyncBridge" in dark slate ── -->
  <text
    x="108"
    y="76"
    font-family="system-ui, -apple-system, 'Segoe UI', Helvetica, Arial, sans-serif"
    font-size="48"
    font-weight="700"
    letter-spacing="-1.5"
    fill="#1E293B"
  >SyncBridge</text>
</svg>
